<svg width="1368" height="130" viewBox="0 0 1368 130" fill="none" xmlns="http://www.w3.org/2000/svg">
<rect width="1368" height="130" fill="white"/>
<path d="M71.4494 57.9914L71.5012 55.7758C73.1922 55.8102 74.5208 55.7071 75.4871 55.4667C76.4879 55.2605 77.2299 54.8484 77.713 54.23C78.1962 53.6461 78.5413 52.8217 78.7483 51.7568C78.9899 50.6576 79.197 49.2664 79.3695 47.5832L70 11.4637H72.7953L77.5577 30.7343L80.7672 44.2856L83.5625 30.6313L87.7555 11.4637H90.6026L82.2684 47.8409C81.9233 49.4553 81.5954 50.8637 81.2848 52.066C80.9742 53.2339 80.6119 54.1957 80.1978 54.9514C79.7836 55.7415 79.2315 56.3598 78.5413 56.8063C77.8511 57.2872 76.9365 57.6136 75.7977 57.7853C74.6589 57.9571 73.2094 58.0258 71.4494 57.9914Z" fill="#1B1B1F"/>
<path d="M111.109 53.1995V33.8259C108.935 34.4442 106.882 34.7533 104.949 34.7533C102.775 34.7533 100.894 34.4614 99.3068 33.8774C97.7539 33.2591 96.546 32.2973 95.6833 30.992C94.8205 29.6523 94.3891 27.9004 94.3891 25.7363V11.4637H97.2362V25.7363C97.2362 27.6256 97.5986 29.0683 98.3233 30.0645C99.048 31.0607 100.014 31.7477 101.222 32.1255C102.465 32.5034 103.845 32.6923 105.363 32.6923C106.468 32.6923 107.503 32.6064 108.469 32.4347C109.47 32.2286 110.35 31.9881 111.109 31.7133V11.4637H113.956V53.1995H111.109Z" fill="#1B1B1F"/>
<path d="M119.489 53.1995L128.289 11.4637H131.551L140.402 53.1995H137.555L135.381 41.6578H124.51L122.285 53.1995H119.489ZM124.925 39.5967H135.019L129.946 14.8644L124.925 39.5967Z" fill="#1B1B1F"/>
<path d="M155.247 53.7663C152.487 53.7663 150.364 53.1995 148.88 52.066C147.431 50.9324 146.43 49.421 145.878 47.5317C145.326 45.6081 145.05 43.4955 145.05 41.194V23.4692C145.05 21.0647 145.343 18.935 145.93 17.08C146.516 15.1908 147.552 13.7137 149.035 12.6488C150.519 11.5496 152.59 11 155.247 11C157.698 11 159.613 11.4809 160.993 12.4427C162.374 13.4045 163.357 14.7786 163.944 16.5648C164.531 18.3166 164.824 20.3777 164.824 22.7479V24.8604H162.132V22.7479C162.132 20.7555 161.942 19.0724 161.563 17.6983C161.183 16.29 160.493 15.2079 159.492 14.4522C158.491 13.6965 157.076 13.3187 155.247 13.3187C153.246 13.3187 151.71 13.7309 150.64 14.5553C149.57 15.3797 148.846 16.5304 148.466 18.0075C148.086 19.4846 147.897 21.2021 147.897 23.1601V41.6063C147.897 43.6673 148.104 45.4363 148.518 46.9134C148.932 48.3561 149.674 49.4725 150.744 50.2626C151.814 51.0526 153.315 51.4477 155.247 51.4477C157.111 51.4477 158.543 51.0526 159.544 50.2626C160.545 49.4725 161.218 48.3733 161.563 46.9649C161.942 45.5222 162.132 43.8562 162.132 41.9669V39.4422H164.824V41.5032C164.824 43.8734 164.548 45.9859 163.996 47.8409C163.444 49.6958 162.477 51.1557 161.097 52.2205C159.716 53.251 157.767 53.7663 155.247 53.7663Z" fill="#1B1B1F"/>
<path d="M176.795 53.1995V13.7309H168.409V11.4637H187.769V13.7309H179.59V53.1995H176.795Z" fill="#1B1B1F"/>
<path d="M192.69 53.1995V11.4637H195.486V29.0855H200.196C202.784 29.0855 204.907 29.5492 206.563 30.4767C208.22 31.3698 209.445 32.7267 210.239 34.5472C211.032 36.3678 211.429 38.6521 211.429 41.4001C211.429 43.1177 211.222 44.6978 210.808 46.1405C210.428 47.5832 209.79 48.837 208.893 49.9019C208.03 50.9324 206.891 51.7396 205.476 52.3236C204.061 52.9075 202.336 53.1995 200.3 53.1995H192.69ZM195.486 50.9324H200.403C202.439 50.9324 204.044 50.5717 205.217 49.8504C206.425 49.0946 207.288 48.0126 207.806 46.6042C208.323 45.1615 208.582 43.4096 208.582 41.3486C208.582 38.2227 207.978 35.7838 206.77 34.032C205.563 32.2458 203.423 31.3526 200.351 31.3526H195.486V50.9324Z" fill="#1B1B1F"/>
<path d="M226.358 53.1995V11.4637H235.003C236.935 11.4637 238.523 11.7385 239.765 12.2881C241.042 12.8034 242.026 13.5419 242.716 14.5037C243.44 15.4656 243.941 16.5819 244.217 17.8529C244.527 19.0895 244.683 20.4292 244.683 21.8719C244.683 22.9711 244.545 24.1562 244.269 25.4272C244.027 26.6638 243.561 27.763 242.871 28.7248C242.181 29.6866 241.145 30.3393 239.765 30.6828C241.387 31.1637 242.612 31.9881 243.44 33.156C244.303 34.324 244.873 35.6293 245.149 37.072C245.459 38.4804 245.615 39.8029 245.615 41.0395C245.615 42.6196 245.494 44.131 245.252 45.5737C245.045 47.0164 244.614 48.3218 243.958 49.4897C243.302 50.6232 242.353 51.5335 241.111 52.2205C239.903 52.8732 238.281 53.1995 236.245 53.1995H226.358ZM229.153 50.9839H235.883C238.643 50.9839 240.49 50.1767 241.422 48.5622C242.388 46.9477 242.871 44.4573 242.871 41.091C242.871 39.4078 242.664 37.8792 242.25 36.5052C241.87 35.1312 241.197 34.032 240.231 33.2076C239.299 32.3832 237.988 31.9709 236.297 31.9709H229.153V50.9839ZM229.153 29.7553H236.245C237.798 29.7553 238.989 29.3947 239.817 28.6733C240.645 27.9519 241.215 27.0073 241.525 25.8394C241.87 24.6371 242.043 23.3146 242.043 21.8719C242.043 20.3261 241.853 18.935 241.473 17.6983C241.094 16.4617 240.352 15.4999 239.247 14.8129C238.178 14.0915 236.538 13.7309 234.33 13.7309H229.153V29.7553Z" fill="#1B1B1F"/>
<path d="M259.215 53.1995L268.015 11.4637H271.276L280.128 53.1995H277.281L275.107 41.6578H264.236L262.01 53.1995H259.215ZM264.65 39.5967H274.745L269.672 14.8644L264.65 39.5967Z" fill="#1B1B1F"/>
<path d="M294.093 53.7663C291.988 53.7663 290.28 53.3541 288.968 52.5297C287.692 51.7053 286.76 50.5717 286.173 49.129C285.586 47.6519 285.293 45.9172 285.293 43.9249V43.152H287.881C287.881 43.2207 287.881 43.3925 287.881 43.6673C287.881 43.9077 287.881 44.0623 287.881 44.131C287.916 46.5355 288.416 48.3733 289.383 49.6443C290.349 50.9152 291.919 51.5507 294.093 51.5507C295.405 51.5507 296.578 51.2931 297.613 50.7778C298.649 50.2282 299.46 49.2664 300.046 47.8924C300.667 46.5184 300.978 44.5947 300.978 42.1215C300.978 39.3735 300.426 37.1063 299.321 35.3201C298.217 33.5339 296.336 32.6064 293.679 32.5377C293.645 32.5377 293.42 32.5377 293.006 32.5377C292.592 32.5377 292.178 32.5377 291.764 32.5377C291.35 32.5377 291.108 32.5377 291.039 32.5377V30.4767C291.108 30.4767 291.35 30.4767 291.764 30.4767C292.178 30.4767 292.592 30.4767 293.006 30.4767C293.42 30.4767 293.627 30.4767 293.627 30.4767C296.319 30.408 298.217 29.6351 299.321 28.158C300.426 26.6466 300.978 24.3451 300.978 21.2536C300.978 18.9178 300.478 16.9942 299.477 15.4827C298.51 13.9713 296.854 13.2156 294.507 13.2156C292.299 13.2156 290.59 13.7652 289.383 14.8644C288.209 15.9636 287.605 17.8873 287.571 20.6353C287.571 20.704 287.571 20.8414 287.571 21.0475C287.571 21.2193 287.571 21.3395 287.571 21.4082H284.982V20.7384C284.982 18.7804 285.276 17.08 285.862 15.6373C286.484 14.1602 287.484 13.0267 288.865 12.2366C290.245 11.4122 292.092 11 294.404 11C296.543 11 298.303 11.4637 299.684 12.3912C301.064 13.2843 302.082 14.5037 302.738 16.0495C303.428 17.5953 303.773 19.3472 303.773 21.3051C303.773 24.431 303.187 26.8356 302.013 28.5187C300.84 30.1676 299.408 31.1637 297.717 31.5072C298.614 31.7133 299.529 32.1942 300.46 32.9499C301.392 33.6713 302.169 34.7705 302.79 36.2476C303.445 37.7246 303.773 39.6654 303.773 42.07C303.773 44.3371 303.445 46.3638 302.79 48.15C302.169 49.9019 301.15 51.2759 299.736 52.2721C298.321 53.2682 296.44 53.7663 294.093 53.7663Z" fill="#1B1B1F"/>
<path d="M307.24 53.1995L316.04 11.4637H319.301L328.153 53.1995H325.306L323.131 41.6578H312.261L310.035 53.1995H307.24ZM312.675 39.5967H322.769L317.696 14.8644L312.675 39.5967Z" fill="#1B1B1F"/>
<path d="M333.68 53.1995V11.4637H343.515C346.035 11.4637 348.002 11.9446 349.417 12.9064C350.831 13.8339 351.815 15.1049 352.367 16.7194C352.954 18.3338 353.247 20.1716 353.247 22.2326C353.247 24.0875 352.954 25.8566 352.367 27.5397C351.815 29.2229 350.831 30.5969 349.417 31.6618C348.002 32.7267 346.052 33.2591 343.567 33.2591H336.475V53.1995H333.68ZM336.475 31.095H342.946C344.637 31.095 346.017 30.803 347.087 30.2191C348.191 29.6351 349.002 28.7077 349.52 27.4367C350.072 26.1314 350.348 24.3967 350.348 22.2326C350.348 19.9998 350.107 18.2651 349.624 17.0285C349.14 15.7575 348.364 14.8816 347.294 14.4007C346.224 13.8854 344.792 13.6278 342.998 13.6278H336.475V31.095Z" fill="#1B1B1F"/>
<path d="M364.343 53.1995V13.7309H355.957V11.4637H375.317V13.7309H367.138V53.1995H364.343Z" fill="#1B1B1F"/>
<path d="M380.187 53.1995V11.4637H383.034V30.2706H397.735V11.4637H400.53V53.1995H397.735V32.4347H383.034V53.1995H380.187Z" fill="#1B1B1F"/>
<path d="M408.243 53.1995V11.4637H410.779V47.0164L425.118 11.4637H427.448V53.1995H424.911V17.6468L410.624 53.1995H408.243Z" fill="#1B1B1F"/>
<path d="M432.082 53.1995L441.297 31.5587L432.134 11.4637H434.723L442.953 29.2916L450.977 11.4637H453.772L444.196 31.9709L453.979 53.1995H451.236L442.591 34.4442L434.878 53.1995H432.082Z" fill="#1B1B1F"/>
<path d="M468.453 53.1995V11.4637H471.248V53.1995H468.453Z" fill="#1B1B1F"/>
<path d="M479.068 53.1995V11.4637H493.303V13.7309H481.863V53.1995H479.068Z" fill="#1B1B1F"/>
<path d="M498.176 53.1995V11.4637H508.012C510.531 11.4637 512.498 11.9446 513.913 12.9064C515.328 13.8339 516.311 15.1049 516.864 16.7194C517.45 18.3338 517.744 20.1716 517.744 22.2326C517.744 24.0875 517.45 25.8566 516.864 27.5397C516.311 29.2229 515.328 30.5969 513.913 31.6618C512.498 32.7267 510.548 33.2591 508.063 33.2591H500.972V53.1995H498.176ZM500.972 31.095H507.442C509.133 31.095 510.514 30.803 511.583 30.2191C512.688 29.6351 513.499 28.7077 514.016 27.4367C514.569 26.1314 514.845 24.3967 514.845 22.2326C514.845 19.9998 514.603 18.2651 514.12 17.0285C513.637 15.7575 512.86 14.8816 511.79 14.4007C510.721 13.8854 509.289 13.6278 507.494 13.6278H500.972V31.095Z" fill="#1B1B1F"/>
<path d="M520.165 53.1995L528.965 11.4637H532.226L541.078 53.1995H538.231L536.057 41.6578H525.186L522.96 53.1995H520.165ZM525.6 39.5967H535.694L530.621 14.8644L525.6 39.5967Z" fill="#1B1B1F"/>
<path d="M543.499 53.1995L552.713 31.5587L543.551 11.4637H546.139L554.37 29.2916L562.393 11.4637H565.189L555.612 31.9709L565.396 53.1995H562.652L554.008 34.4442L546.294 53.1995H543.499Z" fill="#1B1B1F"/>
<path d="M579.3 53.1995L580.542 11.4637H583.338L592.19 49.129L601.197 11.4637H604.096L605.286 53.1995H602.853L601.818 18.2136L593.277 53.1995H591.206L582.768 18.2651L581.733 53.1995H579.3Z" fill="#1B1B1F"/>
<path d="M621.998 53.7663C619.272 53.7663 617.149 53.2339 615.631 52.169C614.147 51.0698 613.112 49.5927 612.525 47.7378C611.938 45.8485 611.645 43.7188 611.645 41.3486V23.1085C611.645 20.7384 611.956 18.643 612.577 16.8224C613.198 15.0018 614.25 13.5763 615.734 12.5458C617.253 11.5153 619.341 11 621.998 11C624.655 11 626.726 11.5153 628.21 12.5458C629.728 13.5763 630.798 15.0018 631.419 16.8224C632.04 18.643 632.351 20.7384 632.351 23.1085V41.4001C632.351 43.7703 632.058 45.8829 631.471 47.7378C630.884 49.5927 629.832 51.0698 628.313 52.169C626.829 53.2339 624.724 53.7663 621.998 53.7663ZM621.998 51.4477C624 51.4477 625.535 51.0526 626.605 50.2626C627.709 49.4725 628.469 48.3733 628.883 46.9649C629.297 45.5222 629.504 43.8562 629.504 41.9669V22.6963C629.504 20.8071 629.297 19.1582 628.883 17.7499C628.469 16.3415 627.727 15.2595 626.657 14.5037C625.587 13.7137 624.034 13.3187 621.998 13.3187C619.996 13.3187 618.443 13.7137 617.339 14.5037C616.269 15.2595 615.527 16.3415 615.113 17.7499C614.699 19.1582 614.492 20.8071 614.492 22.6963V41.9669C614.492 43.8562 614.699 45.5222 615.113 46.9649C615.527 48.3733 616.269 49.4725 617.339 50.2626C618.443 51.0526 619.996 51.4477 621.998 51.4477Z" fill="#1B1B1F"/>
<path d="M636.421 53.1995L647.188 31.4042L637.405 11.4637H640.148L649.569 31.2496H649.932V11.4637H652.52V31.2496H652.882L662.304 11.4637H665.047L655.264 31.4042L666.031 53.1995H663.235L653.038 31.9709H652.52V53.1995H649.932V31.9709H649.362L639.216 53.1995H636.421Z" fill="#1B1B1F"/>
<path d="M670.962 53.1995V11.4637H685.456V13.7309H673.809V30.4767H683.385V32.6408H673.809V50.9839H685.611V53.1995H670.962Z" fill="#1B1B1F"/>
<path d="M701.143 53.1995V11.4637H709.787C711.72 11.4637 713.308 11.7385 714.55 12.2881C715.827 12.8034 716.81 13.5419 717.5 14.5037C718.225 15.4656 718.726 16.5819 719.002 17.8529C719.312 19.0895 719.468 20.4292 719.468 21.8719C719.468 22.9711 719.33 24.1562 719.053 25.4272C718.812 26.6638 718.346 27.763 717.656 28.7248C716.966 29.6866 715.93 30.3393 714.55 30.6828C716.172 31.1637 717.397 31.9881 718.225 33.156C719.088 34.324 719.657 35.6293 719.933 37.072C720.244 38.4804 720.399 39.8029 720.399 41.0395C720.399 42.6196 720.279 44.131 720.037 45.5737C719.83 47.0164 719.399 48.3218 718.743 49.4897C718.087 50.6232 717.138 51.5335 715.896 52.2205C714.688 52.8732 713.066 53.1995 711.03 53.1995H701.143ZM703.938 50.9839H710.668C713.428 50.9839 715.275 50.1767 716.206 48.5622C717.173 46.9477 717.656 44.4573 717.656 41.091C717.656 39.4078 717.449 37.8792 717.035 36.5052C716.655 35.1312 715.982 34.032 715.016 33.2076C714.084 32.3832 712.773 31.9709 711.082 31.9709H703.938V50.9839ZM703.938 29.7553H711.03C712.583 29.7553 713.773 29.3947 714.602 28.6733C715.43 27.9519 715.999 27.0073 716.31 25.8394C716.655 24.6371 716.828 23.3146 716.828 21.8719C716.828 20.3261 716.638 18.935 716.258 17.6983C715.879 16.4617 715.137 15.4999 714.032 14.8129C712.962 14.0915 711.323 13.7309 709.115 13.7309H703.938V29.7553Z" fill="#1B1B1F"/>
<path d="M726.367 53.1995V11.4637H728.903V47.0164L743.242 11.4637H745.572V53.1995H743.035V17.6468L728.748 53.1995H726.367Z" fill="#1B1B1F"/>
<path d="M753.261 53.1995V11.4637H756.108V31.0435H759.576L768.79 11.4637H771.689L762.061 31.7133L773.242 53.1995H770.395L759.576 32.6923H756.108V53.1995H753.261Z" fill="#1B1B1F"/>
<path d="M774.989 53.3026V51.087C776.093 51.0183 777.008 50.8809 777.733 50.6748C778.457 50.4687 779.044 49.9878 779.493 49.2321C779.941 48.4763 780.321 47.2569 780.631 45.5737C780.942 43.8906 781.235 41.5547 781.511 38.5662C781.822 35.5777 782.167 31.7305 782.547 27.0245L783.686 11.4637H798.698V53.1995H795.85V13.6278H786.326L785.29 27.0245C784.911 31.7305 784.566 35.6636 784.255 38.8239C783.944 41.9498 783.582 44.4745 783.168 46.3981C782.788 48.3218 782.271 49.7817 781.615 50.7778C780.994 51.7396 780.148 52.3923 779.078 52.7358C778.009 53.0793 776.646 53.2682 774.989 53.3026Z" fill="#1B1B1F"/>
<path d="M806.34 53.1995V11.4637H808.877V47.0164L823.216 11.4637H825.545V53.1995H823.009V17.6468L808.721 53.1995H806.34Z" fill="#1B1B1F"/>
<path d="M833.234 53.1995V11.4637H836.081V31.0435H839.549L848.764 11.4637H851.662L842.034 31.7133L853.215 53.1995H850.368L839.549 32.6923H836.081V53.1995H833.234Z" fill="#1B1B1F"/>
<path d="M855.325 53.1995L864.125 11.4637H867.386L876.238 53.1995H873.391L871.217 41.6578H860.346L858.12 53.1995H855.325ZM860.76 39.5967H870.854L865.781 14.8644L860.76 39.5967Z" fill="#1B1B1F"/>
<path d="M885.434 53.1995V13.7309H877.048V11.4637H896.408V13.7309H888.229V53.1995H885.434Z" fill="#1B1B1F"/>
<path d="M901.277 53.1995V11.4637H903.813V47.0164L918.152 11.4637H920.482V53.1995H917.945V17.6468L903.658 53.1995H901.277Z" fill="#1B1B1F"/>
<path d="M938.081 53.1995V11.4637H940.877V53.1995H938.081Z" fill="#1B1B1F"/>
<path d="M948.696 53.1995V11.4637H962.932V13.7309H951.491V53.1995H948.696Z" fill="#1B1B1F"/>
<path d="M967.805 53.1995V11.4637H977.64C980.159 11.4637 982.126 11.9446 983.541 12.9064C984.956 13.8339 985.94 15.1049 986.492 16.7194C987.079 18.3338 987.372 20.1716 987.372 22.2326C987.372 24.0875 987.079 25.8566 986.492 27.5397C985.94 29.2229 984.956 30.5969 983.541 31.6618C982.126 32.7267 980.177 33.2591 977.692 33.2591H970.6V53.1995H967.805ZM970.6 31.095H977.071C978.762 31.095 980.142 30.803 981.212 30.2191C982.316 29.6351 983.127 28.7077 983.645 27.4367C984.197 26.1314 984.473 24.3967 984.473 22.2326C984.473 19.9998 984.232 18.2651 983.748 17.0285C983.265 15.7575 982.489 14.8816 981.419 14.4007C980.349 13.8854 978.917 13.6278 977.122 13.6278H970.6V31.095Z" fill="#1B1B1F"/>
<path d="M1002.4 53.7663C999.676 53.7663 997.553 53.2339 996.035 52.169C994.551 51.0698 993.516 49.5927 992.929 47.7378C992.342 45.8485 992.049 43.7188 992.049 41.3486V23.1085C992.049 20.7384 992.36 18.643 992.981 16.8224C993.602 15.0018 994.655 13.5763 996.138 12.5458C997.657 11.5153 999.745 11 1002.4 11C1005.06 11 1007.13 11.5153 1008.61 12.5458C1010.13 13.5763 1011.2 15.0018 1011.82 16.8224C1012.44 18.643 1012.76 20.7384 1012.76 23.1085V41.4001C1012.76 43.7703 1012.46 45.8829 1011.88 47.7378C1011.29 49.5927 1010.24 51.0698 1008.72 52.169C1007.23 53.2339 1005.13 53.7663 1002.4 53.7663ZM1002.4 51.4477C1004.4 51.4477 1005.94 51.0526 1007.01 50.2626C1008.11 49.4725 1008.87 48.3733 1009.29 46.9649C1009.7 45.5222 1009.91 43.8562 1009.91 41.9669V22.6963C1009.91 20.8071 1009.7 19.1582 1009.29 17.7499C1008.87 16.3415 1008.13 15.2595 1007.06 14.5037C1005.99 13.7137 1004.44 13.3187 1002.4 13.3187C1000.4 13.3187 998.848 13.7137 997.743 14.5037C996.673 15.2595 995.931 16.3415 995.517 17.7499C995.103 19.1582 994.896 20.8071 994.896 22.6963V41.9669C994.896 43.8562 995.103 45.5222 995.517 46.9649C995.931 48.3733 996.673 49.4725 997.743 50.2626C998.848 51.0526 1000.4 51.4477 1002.4 51.4477Z" fill="#1B1B1F"/>
<path d="M1019.62 53.1995V11.4637H1028.27C1030.2 11.4637 1031.79 11.7385 1033.03 12.2881C1034.3 12.8034 1035.29 13.5419 1035.98 14.5037C1036.7 15.4656 1037.2 16.5819 1037.48 17.8529C1037.79 19.0895 1037.95 20.4292 1037.95 21.8719C1037.95 22.9711 1037.81 24.1562 1037.53 25.4272C1037.29 26.6638 1036.82 27.763 1036.13 28.7248C1035.44 29.6866 1034.41 30.3393 1033.03 30.6828C1034.65 31.1637 1035.87 31.9881 1036.7 33.156C1037.57 34.324 1038.14 35.6293 1038.41 37.072C1038.72 38.4804 1038.88 39.8029 1038.88 41.0395C1038.88 42.6196 1038.76 44.131 1038.51 45.5737C1038.31 47.0164 1037.88 48.3218 1037.22 49.4897C1036.57 50.6232 1035.62 51.5335 1034.37 52.2205C1033.17 52.8732 1031.54 53.1995 1029.51 53.1995H1019.62ZM1022.42 50.9839H1029.15C1031.91 50.9839 1033.75 50.1767 1034.68 48.5622C1035.65 46.9477 1036.13 44.4573 1036.13 41.091C1036.13 39.4078 1035.93 37.8792 1035.51 36.5052C1035.13 35.1312 1034.46 34.032 1033.49 33.2076C1032.56 32.3832 1031.25 31.9709 1029.56 31.9709H1022.42V50.9839ZM1022.42 29.7553H1029.51C1031.06 29.7553 1032.25 29.3947 1033.08 28.6733C1033.91 27.9519 1034.48 27.0073 1034.79 25.8394C1035.13 24.6371 1035.31 23.3146 1035.31 21.8719C1035.31 20.3261 1035.12 18.935 1034.74 17.6983C1034.36 16.4617 1033.61 15.4999 1032.51 14.8129C1031.44 14.0915 1029.8 13.7309 1027.59 13.7309H1022.42V29.7553Z" fill="#1B1B1F"/>
<path d="M1044.17 57.9914L1044.22 55.7758C1045.91 55.8102 1047.24 55.7071 1048.21 55.4667C1049.21 55.2605 1049.95 54.8484 1050.44 54.23C1050.92 53.6461 1051.26 52.8217 1051.47 51.7568C1051.71 50.6576 1051.92 49.2664 1052.09 47.5832L1042.72 11.4637H1045.52L1050.28 30.7343L1053.49 44.2856L1056.28 30.6313L1060.48 11.4637H1063.33L1054.99 47.8409C1054.65 49.4553 1054.32 50.8637 1054.01 52.066C1053.7 53.2339 1053.33 54.1957 1052.92 54.9514C1052.51 55.7415 1051.95 56.3598 1051.26 56.8063C1050.57 57.2872 1049.66 57.6136 1048.52 57.7853C1047.38 57.9571 1045.93 58.0258 1044.17 57.9914Z" fill="#1B1B1F"/>
<path d="M1086.55 53.7663C1084.44 53.7663 1082.73 53.3541 1081.42 52.5297C1080.15 51.7053 1079.21 50.5717 1078.63 49.129C1078.04 47.6519 1077.75 45.9172 1077.75 43.9249V43.152H1080.34C1080.34 43.2207 1080.34 43.3925 1080.34 43.6673C1080.34 43.9077 1080.34 44.0623 1080.34 44.131C1080.37 46.5355 1080.87 48.3733 1081.84 49.6443C1082.8 50.9152 1084.37 51.5507 1086.55 51.5507C1087.86 51.5507 1089.03 51.2931 1090.07 50.7778C1091.1 50.2282 1091.91 49.2664 1092.5 47.8924C1093.12 46.5184 1093.43 44.5947 1093.43 42.1215C1093.43 39.3735 1092.88 37.1063 1091.78 35.3201C1090.67 33.5339 1088.79 32.6064 1086.13 32.5377C1086.1 32.5377 1085.87 32.5377 1085.46 32.5377C1085.05 32.5377 1084.63 32.5377 1084.22 32.5377C1083.8 32.5377 1083.56 32.5377 1083.49 32.5377V30.4767C1083.56 30.4767 1083.8 30.4767 1084.22 30.4767C1084.63 30.4767 1085.05 30.4767 1085.46 30.4767C1085.87 30.4767 1086.08 30.4767 1086.08 30.4767C1088.77 30.408 1090.67 29.6351 1091.78 28.158C1092.88 26.6466 1093.43 24.3451 1093.43 21.2536C1093.43 18.9178 1092.93 16.9942 1091.93 15.4827C1090.96 13.9713 1089.31 13.2156 1086.96 13.2156C1084.75 13.2156 1083.04 13.7652 1081.84 14.8644C1080.66 15.9636 1080.06 17.8873 1080.02 20.6353C1080.02 20.704 1080.02 20.8414 1080.02 21.0475C1080.02 21.2193 1080.02 21.3395 1080.02 21.4082H1077.44V20.7384C1077.44 18.7804 1077.73 17.08 1078.32 15.6373C1078.94 14.1602 1079.94 13.0267 1081.32 12.2366C1082.7 11.4122 1084.55 11 1086.86 11C1089 11 1090.76 11.4637 1092.14 12.3912C1093.52 13.2843 1094.54 14.5037 1095.19 16.0495C1095.88 17.5953 1096.23 19.3472 1096.23 21.3051C1096.23 24.431 1095.64 26.8356 1094.47 28.5187C1093.29 30.1676 1091.86 31.1637 1090.17 31.5072C1091.07 31.7133 1091.98 32.1942 1092.91 32.9499C1093.85 33.6713 1094.62 34.7705 1095.24 36.2476C1095.9 37.7246 1096.23 39.6654 1096.23 42.07C1096.23 44.3371 1095.9 46.3638 1095.24 48.15C1094.62 49.9019 1093.6 51.2759 1092.19 52.2721C1090.77 53.2682 1088.89 53.7663 1086.55 53.7663Z" fill="#1B1B1F"/>
<path d="M1099.69 53.1995L1108.49 11.4637H1111.75L1120.61 53.1995H1117.76L1115.59 41.6578H1104.71L1102.49 53.1995H1099.69ZM1105.13 39.5967H1115.22L1110.15 14.8644L1105.13 39.5967Z" fill="#1B1B1F"/>
<path d="M1123.55 53.3026V51.087C1124.65 51.0183 1125.56 50.8809 1126.29 50.6748C1127.01 50.4687 1127.6 49.9878 1128.05 49.2321C1128.5 48.4763 1128.88 47.2569 1129.19 45.5737C1129.5 43.8906 1129.79 41.5547 1130.07 38.5662C1130.38 35.5777 1130.72 31.7305 1131.1 27.0245L1132.24 11.4637H1147.25V53.1995H1144.41V13.6278H1134.88L1133.85 27.0245C1133.47 31.7305 1133.12 35.6636 1132.81 38.8239C1132.5 41.9498 1132.14 44.4745 1131.72 46.3981C1131.34 48.3218 1130.83 49.7817 1130.17 50.7778C1129.55 51.7396 1128.7 52.3923 1127.63 52.7358C1126.57 53.0793 1125.2 53.2682 1123.55 53.3026Z" fill="#1B1B1F"/>
<path d="M1154.9 53.1995V11.4637H1169.39V13.7309H1157.74V30.4767H1167.32V32.6408H1157.74V50.9839H1169.55V53.1995H1154.9Z" fill="#1B1B1F"/>
<path d="M1172.47 53.1995L1183.24 31.4042L1173.46 11.4637H1176.2L1185.62 31.2496H1185.99V11.4637H1188.57V31.2496H1188.94L1198.36 11.4637H1201.1L1191.32 31.4042L1202.08 53.1995H1199.29L1189.09 31.9709H1188.57V53.1995H1185.99V31.9709H1185.42L1175.27 53.1995H1172.47Z" fill="#1B1B1F"/>
<path d="M1207.02 53.1995V11.4637H1209.86V30.2706H1224.56V11.4637H1227.36V53.1995H1224.56V32.4347H1209.86V53.1995H1207.02Z" fill="#1B1B1F"/>
<path d="M1235.18 53.1995V11.4637H1237.97V53.1995H1235.18Z" fill="#1B1B1F"/>
<path d="M1255.11 53.7663C1252.35 53.7663 1250.22 53.1995 1248.74 52.066C1247.29 50.9324 1246.29 49.421 1245.74 47.5317C1245.19 45.6081 1244.91 43.4955 1244.91 41.194V23.4692C1244.91 21.0647 1245.2 18.935 1245.79 17.08C1246.38 15.1908 1247.41 13.7137 1248.9 12.6488C1250.38 11.5496 1252.45 11 1255.11 11C1257.56 11 1259.47 11.4809 1260.85 12.4427C1262.23 13.4045 1263.22 14.7786 1263.8 16.5648C1264.39 18.3166 1264.68 20.3777 1264.68 22.7479V24.8604H1261.99V22.7479C1261.99 20.7555 1261.8 19.0724 1261.42 17.6983C1261.04 16.29 1260.35 15.2079 1259.35 14.4522C1258.35 13.6965 1256.94 13.3187 1255.11 13.3187C1253.11 13.3187 1251.57 13.7309 1250.5 14.5553C1249.43 15.3797 1248.71 16.5304 1248.33 18.0075C1247.95 19.4846 1247.76 21.2021 1247.76 23.1601V41.6063C1247.76 43.6673 1247.96 45.4363 1248.38 46.9134C1248.79 48.3561 1249.53 49.4725 1250.6 50.2626C1251.67 51.0526 1253.18 51.4477 1255.11 51.4477C1256.97 51.4477 1258.4 51.0526 1259.4 50.2626C1260.41 49.4725 1261.08 48.3733 1261.42 46.9649C1261.8 45.5222 1261.99 43.8562 1261.99 41.9669V39.4422H1264.68V41.5032C1264.68 43.8734 1264.41 45.9859 1263.86 47.8409C1263.3 49.6958 1262.34 51.1557 1260.96 52.2205C1259.58 53.251 1257.63 53.7663 1255.11 53.7663Z" fill="#1B1B1F"/>
<path d="M1276.66 53.1995V13.7309H1268.27V11.4637H1287.63V13.7309H1279.45V53.1995H1276.66Z" fill="#1B1B1F"/>
<path d="M1292.55 53.1995V11.4637H1295.35V29.0855H1300.06C1302.65 29.0855 1304.77 29.5492 1306.42 30.4767C1308.08 31.3698 1309.31 32.7267 1310.1 34.5472C1310.89 36.3678 1311.29 38.6521 1311.29 41.4001C1311.29 43.1177 1311.08 44.6978 1310.67 46.1405C1310.29 47.5832 1309.65 48.837 1308.75 49.9019C1307.89 50.9324 1306.75 51.7396 1305.34 52.3236C1303.92 52.9075 1302.2 53.1995 1300.16 53.1995H1292.55ZM1295.35 50.9324H1300.26C1302.3 50.9324 1303.9 50.5717 1305.08 49.8504C1306.29 49.0946 1307.15 48.0126 1307.67 46.6042C1308.18 45.1615 1308.44 43.4096 1308.44 41.3486C1308.44 38.2227 1307.84 35.7838 1306.63 34.032C1305.42 32.2458 1303.28 31.3526 1300.21 31.3526H1295.35V50.9324Z" fill="#1B1B1F"/>
<path d="M1315.95 53.1995V47.8409H1319V53.1995H1315.95Z" fill="#1B1B1F"/>
<path d="M115 122.333V113.304H116.501C117.192 112.859 117.813 112.414 118.365 111.97C118.952 111.491 119.469 110.79 119.918 109.866C120.367 108.943 120.781 107.643 121.161 105.967C121.575 104.257 121.954 101.966 122.299 99.0925C122.645 96.1853 122.99 92.5086 123.335 88.0622L124.422 73.9024H139.176V113.304H142.231V122.333H139.953L139.642 115.458H117.588L117.278 122.333H115ZM119.659 113.304H136.329V76.0572H127.01L126.027 88.5753C125.682 93.0216 125.319 96.6812 124.94 99.5542C124.595 102.393 124.232 104.65 123.853 106.326C123.473 108.002 123.059 109.285 122.61 110.174C122.196 111.029 121.747 111.679 121.264 112.124C120.781 112.534 120.246 112.927 119.659 113.304Z" fill="#1B1B1F"/>
<path d="M157.112 116.023C154.385 116.023 152.263 115.493 150.744 114.432C149.26 113.338 148.225 111.867 147.638 110.02C147.051 108.139 146.758 106.019 146.758 103.659V85.4971C146.758 83.1371 147.069 81.0507 147.69 79.238C148.311 77.4253 149.364 76.0059 150.848 74.9798C152.366 73.9537 154.454 73.4407 157.112 73.4407C159.769 73.4407 161.84 73.9537 163.324 74.9798C164.843 76.0059 165.913 77.4253 166.534 79.238C167.155 81.0507 167.466 83.1371 167.466 85.4971V103.71C167.466 106.07 167.172 108.173 166.586 110.02C165.999 111.867 164.946 113.338 163.428 114.432C161.944 115.493 159.838 116.023 157.112 116.023ZM157.112 113.714C159.114 113.714 160.649 113.321 161.719 112.534C162.824 111.747 163.583 110.653 163.997 109.251C164.411 107.814 164.618 106.155 164.618 104.274V85.0866C164.618 83.2055 164.411 81.5638 163.997 80.1615C163.583 78.7592 162.841 77.6818 161.771 76.9294C160.701 76.1427 159.148 75.7494 157.112 75.7494C155.11 75.7494 153.557 76.1427 152.453 76.9294C151.383 77.6818 150.641 78.7592 150.227 80.1615C149.812 81.5638 149.605 83.2055 149.605 85.0866V104.274C149.605 106.155 149.812 107.814 150.227 109.251C150.641 110.653 151.383 111.747 152.453 112.534C153.557 113.321 155.11 113.714 157.112 113.714Z" fill="#1B1B1F"/>
<path d="M179.871 115.458V76.1598H171.484V73.9024H190.846V76.1598H182.666V115.458H179.871Z" fill="#1B1B1F"/>
<path d="M195.767 115.458V73.9024H205.603C208.123 73.9024 210.09 74.3813 211.505 75.3389C212.92 76.2624 213.904 77.5279 214.456 79.1354C215.043 80.7429 215.336 82.5728 215.336 84.6249C215.336 86.4718 215.043 88.2332 214.456 89.9092C213.904 91.5851 212.92 92.9532 211.505 94.0135C210.09 95.0737 208.14 95.6039 205.655 95.6039H198.563V115.458H195.767ZM198.563 93.4491H205.034C206.725 93.4491 208.106 93.1584 209.175 92.577C210.28 91.9955 211.091 91.0721 211.609 89.8066C212.161 88.5069 212.437 86.7796 212.437 84.6249C212.437 82.4017 212.195 80.6745 211.712 79.4432C211.229 78.1777 210.452 77.3056 209.383 76.8267C208.313 76.3137 206.88 76.0572 205.086 76.0572H198.563V93.4491Z" fill="#1B1B1F"/>
<path d="M220.842 115.458V73.9024H223.378V109.302L237.718 73.9024H240.048V115.458H237.511V80.0589L223.223 115.458H220.842Z" fill="#1B1B1F"/>
<path d="M247.271 115.458L248.514 73.9024H251.309L260.162 111.405L269.17 73.9024H272.069L273.26 115.458H270.826L269.791 80.6232L261.249 115.458H259.178L250.74 80.6745L249.705 115.458H247.271Z" fill="#1B1B1F"/>
<path d="M279.774 120.23L279.826 118.024C281.517 118.058 282.846 117.955 283.812 117.716C284.813 117.511 285.555 117.1 286.038 116.484C286.521 115.903 286.866 115.082 287.073 114.022C287.315 112.927 287.522 111.542 287.695 109.866L278.325 73.9024H281.12L285.883 93.09L289.092 106.583L291.888 92.9874L296.081 73.9024H298.929L290.594 110.123C290.249 111.73 289.921 113.133 289.61 114.33C289.3 115.493 288.937 116.45 288.523 117.203C288.109 117.989 287.557 118.605 286.866 119.05C286.176 119.528 285.262 119.853 284.123 120.024C282.984 120.195 281.534 120.264 279.774 120.23Z" fill="#1B1B1F"/>
<path d="M303.854 115.458V73.9024H306.391V109.302L320.731 73.9024H323.061V115.458H320.524V80.0589L306.236 115.458H303.854ZM313.535 70.7729C311.81 70.7729 310.412 70.3112 309.342 69.3877C308.307 68.4643 307.754 67.0278 307.685 65.0782H309.601C309.635 66.5489 310.032 67.575 310.791 68.1564C311.551 68.7379 312.465 69.0286 313.535 69.0286C314.605 69.0286 315.52 68.7379 316.279 68.1564C317.038 67.575 317.47 66.5489 317.573 65.0782H319.489C319.42 67.0278 318.833 68.4643 317.729 69.3877C316.659 70.3112 315.261 70.7729 313.535 70.7729Z" fill="#1B1B1F"/>
<path d="M336.341 115.458V76.1598H327.955V73.9024H347.316V76.1598H339.137V115.458H336.341Z" fill="#1B1B1F"/>
<path d="M352.186 115.458V73.9024H366.681V76.1598H355.033V92.8335H364.61V94.9882H355.033V113.252H366.836V115.458H352.186Z" fill="#1B1B1F"/>
<path d="M381.879 116.023C379.118 116.023 376.996 115.458 375.512 114.33C374.062 113.201 373.061 111.696 372.509 109.815C371.957 107.9 371.681 105.796 371.681 103.505V85.8562C371.681 83.462 371.974 81.3415 372.561 79.4945C373.148 77.6134 374.183 76.1427 375.667 75.0824C377.151 73.9879 379.222 73.4407 381.879 73.4407C384.33 73.4407 386.245 73.9195 387.626 74.8772C389.006 75.8349 389.99 77.203 390.577 78.9815C391.163 80.7258 391.457 82.778 391.457 85.1379V87.2414H388.765V85.1379C388.765 83.1542 388.575 81.4783 388.195 80.1102C387.816 78.7079 387.125 77.6305 386.125 76.8781C385.124 76.1256 383.709 75.7494 381.879 75.7494C379.878 75.7494 378.342 76.1598 377.272 76.9807C376.202 77.8015 375.477 78.9473 375.098 80.418C374.718 81.8887 374.528 83.5988 374.528 85.5484V103.915C374.528 105.967 374.735 107.729 375.149 109.199C375.564 110.636 376.306 111.747 377.376 112.534C378.445 113.321 379.947 113.714 381.879 113.714C383.743 113.714 385.175 113.321 386.176 112.534C387.177 111.747 387.85 110.653 388.195 109.251C388.575 107.814 388.765 106.155 388.765 104.274V101.76H391.457V103.812C391.457 106.172 391.181 108.276 390.628 110.123C390.076 111.97 389.11 113.423 387.729 114.484C386.349 115.51 384.399 116.023 381.879 116.023Z" fill="#1B1B1F"/>
<path d="M395.197 115.458L403.532 96.5273C401.427 95.7407 399.908 94.3213 398.977 92.2691C398.045 90.1828 397.579 87.7715 397.579 85.0353C397.579 83.0516 397.889 81.2218 398.511 79.5458C399.166 77.8699 400.271 76.5189 401.824 75.4929C403.377 74.4326 405.534 73.9024 408.295 73.9024H417.458V115.458H414.559V97.3482H408.14C407.829 97.3482 407.467 97.3482 407.053 97.3482C406.673 97.314 406.345 97.2798 406.069 97.2456L398.355 115.458H395.197ZM408.502 95.1934H414.559V76.1085H408.399C405.845 76.1085 403.86 76.7925 402.445 78.1606C401.065 79.5287 400.374 81.8203 400.374 85.0353C400.374 88.3872 400.996 90.9181 402.238 92.6283C403.481 94.3384 405.569 95.1934 408.502 95.1934Z" fill="#1B1B1F"/>
<path d="M434.997 115.458V73.9024H455.446V115.458H452.651V76.0572H437.793V115.458H434.997Z" fill="#1B1B1F"/>
<path d="M463.208 115.458V73.9024H473.044C475.563 73.9024 477.53 74.3813 478.945 75.3389C480.36 76.2624 481.344 77.5279 481.896 79.1354C482.483 80.7429 482.776 82.5728 482.776 84.6249C482.776 86.4718 482.483 88.2332 481.896 89.9092C481.344 91.5851 480.36 92.9532 478.945 94.0135C477.53 95.0737 475.58 95.6039 473.096 95.6039H466.003V115.458H463.208ZM466.003 93.4491H472.474C474.165 93.4491 475.546 93.1584 476.616 92.577C477.72 91.9955 478.531 91.0721 479.049 89.8066C479.601 88.5069 479.877 86.7796 479.877 84.6249C479.877 82.4017 479.636 80.6745 479.153 79.4432C478.669 78.1777 477.893 77.3056 476.823 76.8267C475.753 76.3137 474.321 76.0572 472.526 76.0572H466.003V93.4491Z" fill="#1B1B1F"/>
<path d="M485.198 115.458L493.999 73.9024H497.26L506.113 115.458H503.265L501.091 103.966H490.219L487.993 115.458H485.198ZM490.634 101.914H500.729L495.655 77.2885L490.634 101.914Z" fill="#1B1B1F"/>
<path d="M511.64 115.458V73.9024H520.286C522.218 73.9024 523.806 74.1761 525.048 74.7233C526.325 75.2363 527.309 75.9717 527.999 76.9294C528.724 77.887 529.224 78.9986 529.501 80.2641C529.811 81.4954 529.966 82.8293 529.966 84.2658C529.966 85.3602 529.828 86.5402 529.552 87.8057C529.311 89.037 528.845 90.1315 528.154 91.0892C527.464 92.0468 526.429 92.6967 525.048 93.0387C526.67 93.5175 527.896 94.3384 528.724 95.5013C529.587 96.6641 530.156 97.9638 530.432 99.4003C530.743 100.803 530.898 102.119 530.898 103.351C530.898 104.924 530.777 106.429 530.536 107.865C530.329 109.302 529.897 110.602 529.242 111.765C528.586 112.893 527.637 113.8 526.394 114.484C525.186 115.133 523.564 115.458 521.528 115.458H511.64ZM514.436 113.252H521.166C523.927 113.252 525.773 112.449 526.705 110.841C527.671 109.234 528.154 106.754 528.154 103.402C528.154 101.726 527.947 100.204 527.533 98.836C527.154 97.4679 526.481 96.3734 525.514 95.5526C524.582 94.7317 523.271 94.3213 521.58 94.3213H514.436V113.252ZM514.436 92.1152H521.528C523.081 92.1152 524.272 91.7561 525.1 91.0379C525.928 90.3196 526.498 89.379 526.809 88.2162C527.154 87.0191 527.326 85.7023 527.326 84.2658C527.326 82.7267 527.136 81.3415 526.757 80.1102C526.377 78.8789 525.635 77.9212 524.531 77.2372C523.461 76.5189 521.821 76.1598 519.613 76.1598H514.436V92.1152Z" fill="#1B1B1F"/>
<path d="M536.866 115.458V73.9024H539.403V109.302L553.743 73.9024H556.073V115.458H553.536V80.0589L539.248 115.458H536.866Z" fill="#1B1B1F"/>
<path d="M561.225 115.561V113.355C562.33 113.287 563.244 113.15 563.969 112.944C564.694 112.739 565.281 112.26 565.729 111.508C566.178 110.756 566.558 109.541 566.868 107.865C567.179 106.19 567.472 103.864 567.748 100.888C568.059 97.9125 568.404 94.0819 568.784 89.3961L569.923 73.9024H584.936V115.458H582.088V76.0572H572.563L571.527 89.3961C571.148 94.0819 570.803 97.998 570.492 101.145C570.181 104.257 569.819 106.771 569.405 108.686C569.025 110.602 568.507 112.055 567.852 113.047C567.23 114.005 566.385 114.655 565.315 114.997C564.245 115.339 562.882 115.527 561.225 115.561Z" fill="#1B1B1F"/>
<path d="M610.721 123C609.168 122.863 607.891 122.35 606.891 121.461C605.89 120.606 605.113 119.443 604.561 117.972C604.009 116.502 603.595 114.774 603.318 112.791C603.077 110.773 602.922 108.549 602.853 106.121C602.818 103.693 602.801 101.11 602.801 98.3743C602.801 95.6039 602.818 92.9874 602.853 90.5248C602.922 88.0622 603.077 85.822 603.318 83.804C603.595 81.7519 604.009 79.9905 604.561 78.5198C605.113 77.0149 605.89 75.852 606.891 75.0311C607.891 74.1761 609.168 73.7143 610.721 73.6459V75.6468C609.41 75.8178 608.392 76.5189 607.667 77.7502C606.942 78.9473 606.425 80.5719 606.114 82.6241C605.803 84.642 605.614 87.002 605.545 89.704C605.51 92.3717 605.493 95.2618 605.493 98.3743C605.493 101.487 605.51 104.394 605.545 107.096C605.614 109.764 605.803 112.107 606.114 114.124C606.425 116.142 606.925 117.75 607.615 118.947C608.34 120.178 609.375 120.879 610.721 121.05V123Z" fill="#1B1B1F"/>
<path d="M616.19 115.458V73.9024H636.638V115.458H633.843V76.0572H618.985V115.458H616.19Z" fill="#1B1B1F"/>
<path d="M644.4 115.458V73.9024H654.236C656.755 73.9024 658.723 74.3813 660.138 75.3389C661.553 76.2624 662.536 77.5279 663.088 79.1354C663.675 80.7429 663.969 82.5728 663.969 84.6249C663.969 86.4718 663.675 88.2332 663.088 89.9092C662.536 91.5851 661.553 92.9532 660.138 94.0135C658.723 95.0737 656.773 95.6039 654.288 95.6039H647.195V115.458H644.4ZM647.195 93.4491H653.666C655.358 93.4491 656.738 93.1584 657.808 92.577C658.912 91.9955 659.723 91.0721 660.241 89.8066C660.793 88.5069 661.069 86.7796 661.069 84.6249C661.069 82.4017 660.828 80.6745 660.345 79.4432C659.862 78.1777 659.085 77.3056 658.015 76.8267C656.945 76.3137 655.513 76.0572 653.718 76.0572H647.195V93.4491Z" fill="#1B1B1F"/>
<path d="M669.474 115.458V73.9024H672.011V109.302L686.351 73.9024H688.681V115.458H686.144V80.0589L671.856 115.458H669.474Z" fill="#1B1B1F"/>
<path d="M696.37 115.458V73.9024H699.217V92.6283H713.92V73.9024H716.715V115.458H713.92V94.783H699.217V115.458H696.37Z" fill="#1B1B1F"/>
<path d="M745.654 122.333L745.343 115.458H724.428V73.9024H727.276V113.304H742.185V73.9024H745.033V113.304H747.932V122.333H745.654Z" fill="#1B1B1F"/>
<path d="M753.144 115.458V73.9024H755.681V109.302L770.021 73.9024H772.35V115.458H769.814V80.0589L755.526 115.458H753.144Z" fill="#1B1B1F"/>
<path d="M780.092 115.458V73.9024H800.541V115.458H797.745V76.0572H782.887V115.458H780.092Z" fill="#1B1B1F"/>
<path d="M808.354 115.458V73.9024H811.149V115.458H808.354Z" fill="#1B1B1F"/>
<path d="M818.969 115.458V73.9024H827.615C829.547 73.9024 831.135 74.1761 832.377 74.7233C833.654 75.2363 834.638 75.9717 835.328 76.9294C836.053 77.887 836.553 78.9986 836.829 80.2641C837.14 81.4954 837.295 82.8293 837.295 84.2658C837.295 85.3602 837.157 86.5402 836.881 87.8057C836.64 89.037 836.174 90.1315 835.484 91.0892C834.793 92.0468 833.758 92.6967 832.377 93.0387C833.999 93.5175 835.225 94.3384 836.053 95.5013C836.916 96.6641 837.485 97.9638 837.761 99.4003C838.072 100.803 838.227 102.119 838.227 103.351C838.227 104.924 838.106 106.429 837.865 107.865C837.658 109.302 837.226 110.602 836.571 111.765C835.915 112.893 834.966 113.8 833.723 114.484C832.515 115.133 830.893 115.458 828.857 115.458H818.969ZM821.765 113.252H828.495C831.256 113.252 833.102 112.449 834.034 110.841C835 109.234 835.484 106.754 835.484 103.402C835.484 101.726 835.276 100.204 834.862 98.836C834.483 97.4679 833.81 96.3734 832.843 95.5526C831.911 94.7317 830.6 94.3213 828.909 94.3213H821.765V113.252ZM821.765 92.1152H828.857C830.41 92.1152 831.601 91.7561 832.429 91.0379C833.257 90.3196 833.827 89.379 834.137 88.2162C834.483 87.0191 834.655 85.7023 834.655 84.2658C834.655 82.7267 834.465 81.3415 834.086 80.1102C833.706 78.8789 832.964 77.9212 831.86 77.2372C830.79 76.5189 829.15 76.1598 826.942 76.1598H821.765V92.1152Z" fill="#1B1B1F"/>
<path d="M841.969 123V121.05C843.281 120.879 844.299 120.178 845.024 118.947C845.748 117.75 846.266 116.142 846.577 114.124C846.887 112.072 847.06 109.712 847.094 107.045C847.163 104.343 847.198 101.435 847.198 98.323C847.198 95.2105 847.163 92.3204 847.094 89.6527C847.06 86.9507 846.887 84.5907 846.577 82.5728C846.266 80.5548 845.748 78.9473 845.024 77.7502C844.299 76.5189 843.281 75.8178 841.969 75.6468V73.6459C843.522 73.7143 844.799 74.1761 845.8 75.0311C846.801 75.852 847.578 77.0149 848.13 78.5198C848.716 79.9905 849.131 81.7348 849.372 83.7527C849.648 85.7707 849.804 88.0109 849.838 90.4735C849.907 92.9361 849.942 95.5526 849.942 98.323C849.942 101.059 849.907 103.641 849.838 106.07C849.804 108.498 849.648 110.721 849.372 112.739C849.131 114.757 848.716 116.502 848.13 117.972C847.578 119.443 846.801 120.606 845.8 121.461C844.799 122.35 843.522 122.863 841.969 123Z" fill="#1B1B1F"/>
<path d="M867.25 115.458V73.9024H875.895C877.828 73.9024 879.416 74.1761 880.658 74.7233C881.935 75.2363 882.919 75.9717 883.609 76.9294C884.334 77.887 884.834 78.9986 885.11 80.2641C885.421 81.4954 885.576 82.8293 885.576 84.2658C885.576 85.3602 885.438 86.5402 885.162 87.8057C884.92 89.037 884.455 90.1315 883.764 91.0892C883.074 92.0468 882.039 92.6967 880.658 93.0387C882.28 93.5175 883.505 94.3384 884.334 95.5013C885.197 96.6641 885.766 97.9638 886.042 99.4003C886.353 100.803 886.508 102.119 886.508 103.351C886.508 104.924 886.387 106.429 886.146 107.865C885.939 109.302 885.507 110.602 884.851 111.765C884.196 112.893 883.247 113.8 882.004 114.484C880.796 115.133 879.174 115.458 877.138 115.458H867.25ZM870.045 113.252H876.775C879.536 113.252 881.383 112.449 882.315 110.841C883.281 109.234 883.764 106.754 883.764 103.402C883.764 101.726 883.557 100.204 883.143 98.836C882.763 97.4679 882.09 96.3734 881.124 95.5526C880.192 94.7317 878.881 94.3213 877.19 94.3213H870.045V113.252ZM870.045 92.1152H877.138C878.691 92.1152 879.882 91.7561 880.71 91.0379C881.538 90.3196 882.108 89.379 882.418 88.2162C882.763 87.0191 882.936 85.7023 882.936 84.2658C882.936 82.7267 882.746 81.3415 882.367 80.1102C881.987 78.8789 881.245 77.9212 880.14 77.2372C879.07 76.5189 877.431 76.1598 875.222 76.1598H870.045V92.1152Z" fill="#1B1B1F"/>
<path d="M892.58 115.458V73.9024H895.375V115.458H892.58Z" fill="#1B1B1F"/>
<path d="M899.778 122.333V113.304H901.28C901.97 112.859 902.591 112.414 903.143 111.97C903.73 111.491 904.248 110.79 904.696 109.866C905.145 108.943 905.559 107.643 905.939 105.967C906.353 104.257 906.733 101.966 907.078 99.0925C907.423 96.1853 907.768 92.5086 908.113 88.0622L909.2 73.9024H923.955V113.304H927.009V122.333H924.731L924.42 115.458H902.367L902.056 122.333H899.778ZM904.438 113.304H921.107V76.0572H911.789L910.805 88.5753C910.46 93.0216 910.098 96.6812 909.718 99.5542C909.373 102.393 909.01 104.65 908.631 106.326C908.251 108.002 907.837 109.285 907.388 110.174C906.974 111.029 906.526 111.679 906.042 112.124C905.559 112.534 905.024 112.927 904.438 113.304Z" fill="#1B1B1F"/>
<path d="M932.416 115.458V73.9024H952.865V115.458H950.07V76.0572H935.212V115.458H932.416Z" fill="#1B1B1F"/>
<path d="M970.1 116.023C967.374 116.023 965.251 115.493 963.733 114.432C962.249 113.338 961.213 111.867 960.627 110.02C960.04 108.139 959.747 106.019 959.747 103.659V85.4971C959.747 83.1371 960.057 81.0507 960.678 79.238C961.3 77.4253 962.352 76.0059 963.836 74.9798C965.355 73.9537 967.443 73.4407 970.1 73.4407C972.758 73.4407 974.829 73.9537 976.313 74.9798C977.831 76.0059 978.901 77.4253 979.522 79.238C980.144 81.0507 980.454 83.1371 980.454 85.4971V103.71C980.454 106.07 980.161 108.173 979.574 110.02C978.987 111.867 977.935 113.338 976.416 114.432C974.932 115.493 972.827 116.023 970.1 116.023ZM970.1 113.714C972.102 113.714 973.638 113.321 974.708 112.534C975.812 111.747 976.571 110.653 976.986 109.251C977.4 107.814 977.607 106.155 977.607 104.274V85.0866C977.607 83.2055 977.4 81.5638 976.986 80.1615C976.571 78.7592 975.829 77.6818 974.76 76.9294C973.69 76.1427 972.137 75.7494 970.1 75.7494C968.099 75.7494 966.546 76.1427 965.441 76.9294C964.371 77.6818 963.629 78.7592 963.215 80.1615C962.801 81.5638 962.594 83.2055 962.594 85.0866V104.274C962.594 106.155 962.801 107.814 963.215 109.251C963.629 110.653 964.371 111.747 965.441 112.534C966.546 113.321 968.099 113.714 970.1 113.714Z" fill="#1B1B1F"/>
<path d="M987.32 115.458V73.9024H995.966C997.898 73.9024 999.486 74.1761 1000.73 74.7233C1002.01 75.2363 1002.99 75.9717 1003.68 76.9294C1004.4 77.887 1004.9 78.9986 1005.18 80.2641C1005.49 81.4954 1005.65 82.8293 1005.65 84.2658C1005.65 85.3602 1005.51 86.5402 1005.23 87.8057C1004.99 89.037 1004.52 90.1315 1003.83 91.0892C1003.14 92.0468 1002.11 92.6967 1000.73 93.0387C1002.35 93.5175 1003.58 94.3384 1004.4 95.5013C1005.27 96.6641 1005.84 97.9638 1006.11 99.4003C1006.42 100.803 1006.58 102.119 1006.58 103.351C1006.58 104.924 1006.46 106.429 1006.22 107.865C1006.01 109.302 1005.58 110.602 1004.92 111.765C1004.27 112.893 1003.32 113.8 1002.07 114.484C1000.87 115.133 999.244 115.458 997.208 115.458H987.32ZM990.116 113.252H996.846C999.607 113.252 1001.45 112.449 1002.38 110.841C1003.35 109.234 1003.83 106.754 1003.83 103.402C1003.83 101.726 1003.63 100.204 1003.21 98.836C1002.83 97.4679 1002.16 96.3734 1001.19 95.5526C1000.26 94.7317 998.951 94.3213 997.26 94.3213H990.116V113.252ZM990.116 92.1152H997.208C998.761 92.1152 999.952 91.7561 1000.78 91.0379C1001.61 90.3196 1002.18 89.379 1002.49 88.2162C1002.83 87.0191 1003.01 85.7023 1003.01 84.2658C1003.01 82.7267 1002.82 81.3415 1002.44 80.1102C1002.06 78.8789 1001.32 77.9212 1000.21 77.2372C999.141 76.5189 997.501 76.1598 995.293 76.1598H990.116V92.1152Z" fill="#1B1B1F"/>
<path d="M1012.65 115.458V73.9024H1015.45V115.458H1012.65Z" fill="#1B1B1F"/>
<path d="M1019.85 122.333V113.304H1021.35C1022.04 112.859 1022.66 112.414 1023.21 111.97C1023.8 111.491 1024.32 110.79 1024.77 109.866C1025.22 108.943 1025.63 107.643 1026.01 105.967C1026.42 104.257 1026.8 101.966 1027.15 99.0925C1027.49 96.1853 1027.84 92.5086 1028.18 88.0622L1029.27 73.9024H1044.02V113.304H1047.08V122.333H1044.8L1044.49 115.458H1022.44L1022.13 122.333H1019.85ZM1024.51 113.304H1041.18V76.0572H1031.86L1030.88 88.5753C1030.53 93.0216 1030.17 96.6812 1029.79 99.5542C1029.44 102.393 1029.08 104.65 1028.7 106.326C1028.32 108.002 1027.91 109.285 1027.46 110.174C1027.04 111.029 1026.6 111.679 1026.11 112.124C1025.63 112.534 1025.09 112.927 1024.51 113.304Z" fill="#1B1B1F"/>
<path d="M1050.26 115.458L1059.06 73.9024H1062.32L1071.18 115.458H1068.33L1066.15 103.966H1055.28L1053.06 115.458H1050.26ZM1055.7 101.914H1065.79L1060.72 77.2885L1055.7 101.914Z" fill="#1B1B1F"/>
<path d="M1074.11 115.561V113.355C1075.22 113.287 1076.13 113.15 1076.86 112.944C1077.58 112.739 1078.17 112.26 1078.62 111.508C1079.07 110.756 1079.45 109.541 1079.76 107.865C1080.07 106.19 1080.36 103.864 1080.64 100.888C1080.95 97.9125 1081.29 94.0819 1081.67 89.3961L1082.81 73.9024H1097.82V115.458H1094.98V76.0572H1085.45L1084.42 89.3961C1084.04 94.0819 1083.69 97.998 1083.38 101.145C1083.07 104.257 1082.71 106.771 1082.29 108.686C1081.91 110.602 1081.4 112.055 1080.74 113.047C1080.12 114.005 1079.27 114.655 1078.2 114.997C1077.13 115.339 1075.77 115.527 1074.11 115.561Z" fill="#1B1B1F"/>
<path d="M1105.52 115.458V73.9024H1108.32V91.4483H1113.03C1115.61 91.4483 1117.74 91.91 1119.39 92.8335C1121.05 93.7227 1122.28 95.0737 1123.07 96.8865C1123.86 98.6992 1124.26 100.974 1124.26 103.71C1124.26 105.42 1124.05 106.993 1123.64 108.43C1123.26 109.866 1122.62 111.115 1121.72 112.175C1120.86 113.201 1119.72 114.005 1118.31 114.586C1116.89 115.168 1115.17 115.458 1113.13 115.458H1105.52ZM1108.32 113.201H1113.23C1115.27 113.201 1116.87 112.842 1118.05 112.124C1119.26 111.371 1120.12 110.294 1120.64 108.892C1121.15 107.455 1121.41 105.711 1121.41 103.659C1121.41 100.546 1120.81 98.1178 1119.6 96.3734C1118.39 94.5949 1116.25 93.7056 1113.18 93.7056H1108.32V113.201Z" fill="#1B1B1F"/>
<path d="M1129.33 115.458V73.9024H1132.18V92.6283H1146.88V73.9024H1149.68V115.458H1146.88V94.783H1132.18V115.458H1129.33Z" fill="#1B1B1F"/>
<path d="M1166.91 116.023C1164.19 116.023 1162.07 115.493 1160.55 114.432C1159.06 113.338 1158.03 111.867 1157.44 110.02C1156.85 108.139 1156.56 106.019 1156.56 103.659V85.4971C1156.56 83.1371 1156.87 81.0507 1157.49 79.238C1158.11 77.4253 1159.17 76.0059 1160.65 74.9798C1162.17 73.9537 1164.26 73.4407 1166.91 73.4407C1169.57 73.4407 1171.64 73.9537 1173.13 74.9798C1174.65 76.0059 1175.71 77.4253 1176.34 79.238C1176.96 81.0507 1177.27 83.1371 1177.27 85.4971V103.71C1177.27 106.07 1176.97 108.173 1176.39 110.02C1175.8 111.867 1174.75 113.338 1173.23 114.432C1171.75 115.493 1169.64 116.023 1166.91 116.023ZM1166.91 113.714C1168.92 113.714 1170.45 113.321 1171.52 112.534C1172.63 111.747 1173.39 110.653 1173.8 109.251C1174.21 107.814 1174.42 106.155 1174.42 104.274V85.0866C1174.42 83.2055 1174.21 81.5638 1173.8 80.1615C1173.39 78.7592 1172.64 77.6818 1171.57 76.9294C1170.5 76.1427 1168.95 75.7494 1166.91 75.7494C1164.91 75.7494 1163.36 76.1427 1162.26 76.9294C1161.19 77.6818 1160.44 78.7592 1160.03 80.1615C1159.61 81.5638 1159.41 83.2055 1159.41 85.0866V104.274C1159.41 106.155 1159.61 107.814 1160.03 109.251C1160.44 110.653 1161.19 111.747 1162.26 112.534C1163.36 113.321 1164.91 113.714 1166.91 113.714Z" fill="#1B1B1F"/>
<path d="M1184.19 115.458V73.9024H1186.98V115.458H1184.19ZM1188.33 65.8991V62H1191.23V65.8991H1188.33ZM1180.04 65.8991V62H1182.89V65.8991H1180.04Z" fill="#1B1B1F"/>
<path d="M1204.61 115.458V73.9024H1218.85V76.1598H1207.4V115.458H1204.61Z" fill="#1B1B1F"/>
<path d="M1223.72 115.458V73.9024H1233.56C1236.07 73.9024 1238.04 74.3813 1239.46 75.3389C1240.87 76.2624 1241.86 77.5279 1242.41 79.1354C1242.99 80.7429 1243.29 82.5728 1243.29 84.6249C1243.29 86.4718 1242.99 88.2332 1242.41 89.9092C1241.86 91.5851 1240.87 92.9532 1239.46 94.0135C1238.04 95.0737 1236.09 95.6039 1233.61 95.6039H1226.51V115.458H1223.72ZM1226.51 93.4491H1232.99C1234.68 93.4491 1236.06 93.1584 1237.13 92.577C1238.23 91.9955 1239.04 91.0721 1239.56 89.8066C1240.11 88.5069 1240.39 86.7796 1240.39 84.6249C1240.39 82.4017 1240.15 80.6745 1239.66 79.4432C1239.18 78.1777 1238.4 77.3056 1237.33 76.8267C1236.26 76.3137 1234.83 76.0572 1233.04 76.0572H1226.51V93.4491Z" fill="#1B1B1F"/>
<path d="M1248.79 115.458V73.9024H1251.33V109.302L1265.67 73.9024H1268V115.458H1265.46V80.0589L1251.18 115.458H1248.79Z" fill="#1B1B1F"/>
</svg>
